# xmcd
#
# Track frame offsets:
#	150
#	11473
#	22454
#	33905
#	46647
#	57245
#	69852
#	80900
#	90440
#	100722
#	113556
#	123753
#	136147
#	146717
#	157491
#	167780
#	178799
#	189975
#	202751
#	213888
#	225039
#	236692
#	248338
#	260717
#	273412
#	286032
#
# Disc length: 3972 seconds
#
# Revision: 3
# Processed by: cddbd v1.5.2PL0 Copyright (c) Steve Scherf et al.
# Submitted via: EZCDAudioConverter 3.1.7.1
#
DISCID=560f821a
DTITLE=Porter Wagoner - The Thin Man From The West Plains_cd1
DYEAR=1993
DGENRE=Country
TTITLE0=Settin The Woods On Fire (1952)
TTITLE1=Headin' For A Weddin' (1952)
TTITLE2=Lovin' Letters (1993)
TTITLE3=I Can't Live With You (I Can't Live Without You) (1953)
TTITLE4=Bringing Home The Bacon (1953)
TTITLE5=An Angel Made Of Ice (1953)
TTITLE6=Takin' Chances (1953)
TTITLE7=All Roads Lead To Love (1953)
TTITLE8=That's It (1953)
TTITLE9=A Beggar For Your Love (1953)
TTITLE10=Trademark (1953)
TTITLE11=Don't Play That Song (1953)
TTITLE12=The Flame Of Love (1953)
TTITLE13=Dig That Crazy Moon (1953)
TTITLE14=Trinidad (1954)
TTITLE15=Bad News Travel Fast (1954)
TTITLE16=Get Out Of Here (1993)
TTITLE17=My Bonfire (1956)
TTITLE18=Town Crier (1993)
TTITLE19=Love At First Sight (1954)
TTITLE20=Be Glad You Ain't Me (1954)
TTITLE21=Our Shivaree (1993)
TTITLE22=Company's Comin' (1954)
TTITLE23=Tricks Of The Trade (1954)
TTITLE24=A Satisfied Mind (1955)
TTITLE25=A Good Time Was Had By All  (1956)
EXTD=
EXTT0=
EXTT1=
EXTT2=
EXTT3=
EXTT4=
EXTT5=
EXTT6=
EXTT7=
EXTT8=
EXTT9=
EXTT10=
EXTT11=
EXTT12=
EXTT13=
EXTT14=
EXTT15=
EXTT16=
EXTT17=
EXTT18=
EXTT19=
EXTT20=
EXTT21=
EXTT22=
EXTT23=
EXTT24=
EXTT25=
PLAYORDER=
